<svg viewBox="0 0 16 16" fill="none" xmlns="http://www.w3.org/2000/svg" id="Map-Marker--Streamline-Unicons" height="16" width="16">
  <desc>
    Map Marker Streamline Icon: https://streamlinehq.com
  </desc>
  <path d="M8 0.15999999999999998c-1.6633999999999998 0 -3.258733333333333 0.6607999999999999 -4.434933333333333 1.837C2.3888 3.1732666666666667 1.7280666666666664 4.768533333333333 1.7280666666666664 6.4319999999999995c0 4.233533333333333 5.527133333333333 9.015933333333333 5.762333333333332 9.219733333333332 0.142 0.12146666666666667 0.3227333333333333 0.18826666666666664 0.5095999999999999 0.18826666666666664s0.3676 -0.0668 0.5095999999999999 -0.18826666666666664c0.2744 -0.2038 5.7623999999999995 -4.9862 5.7623999999999995 -9.219733333333332 0 -1.6634666666666666 -0.6608666666666666 -3.258733333333333 -1.837 -4.435C11.258733333333334 0.8208 9.6634 0.15999999999999998 8 0.15999999999999998Zm0 13.837533333333333c-1.6699333333333333 -1.5679999999999998 -4.704 -4.946999999999999 -4.704 -7.565533333333333 0 -1.2475999999999998 0.49559999999999993 -2.4440666666666666 1.3778 -3.3262666666666663C5.555933333333333 2.2236 6.7524 1.728 8 1.728s2.444 0.49559999999999993 3.3262 1.3777333333333335c0.8821999999999999 0.8821999999999999 1.3778 2.0786666666666664 1.3778 3.3262666666666663 0 2.618533333333333 -3.0340666666666665 6.0054 -4.704 7.565533333333333ZM8 3.296c-0.6202 0 -1.2265333333333333 0.1839333333333333 -1.7422666666666666 0.5284666666666666 -0.5157333333333333 0.3446 -0.9176666666666666 0.8344 -1.1549999999999998 1.4074 -0.2373333333333333 0.5730666666666666 -0.29946666666666666 1.2035333333333331 -0.17846666666666666 1.8119333333333334 0.121 0.6083333333333333 0.41966666666666663 1.1670666666666665 0.8582666666666667 1.6056 0.43853333333333333 0.4386 0.9973333333333333 0.7372666666666667 1.6056666666666666 0.8582666666666667 0.6083333333333333 0.12106666666666667 1.2388666666666666 0.05893333333333334 1.8118666666666665 -0.17846666666666666 0.573 -0.23726666666666665 1.0628666666666666 -0.6392666666666666 1.4074 -1.1549333333333331s0.5285333333333333 -1.1220666666666665 0.5285333333333333 -1.7422666666666666c0 -0.8317333333333333 -0.33039999999999997 -1.6294 -0.9185333333333332 -2.217533333333333C9.6294 3.6264000000000003 8.831733333333332 3.296 8 3.296Zm0 4.7039333333333335c-0.3101333333333333 0 -0.6132666666666666 -0.09193333333333333 -0.8710666666666667 -0.26426666666666665 -0.25786666666666663 -0.17226666666666668 -0.4589333333333333 -0.41713333333333336 -0.5775999999999999 -0.7035999999999999 -0.1186 -0.28659999999999997 -0.14966666666666667 -0.6018666666666667 -0.0892 -0.9059999999999999 0.060533333333333335 -0.3041333333333333 0.20986666666666667 -0.5835333333333332 0.42913333333333337 -0.8028666666666666 0.21926666666666667 -0.21926666666666667 0.4987333333333333 -0.3685999999999999 0.8028 -0.4290666666666666 0.30419999999999997 -0.060533333333333335 0.6194666666666666 -0.02946666666666667 0.9059999999999999 0.0892 0.28646666666666665 0.11866666666666666 0.5314 0.31966666666666665 0.7036666666666667 0.5775333333333332 0.17226666666666668 0.2578 0.26426666666666665 0.5609999999999999 0.26426666666666665 0.8711333333333333 0 0.4158 -0.16519999999999999 0.8146 -0.4592666666666666 1.1086666666666667s-0.6928666666666665 0.4592666666666666 -1.1087333333333333 0.4592666666666666Z" fill="#000000" stroke-width="0.6667"></path>
</svg>