<svg viewBox="0 0 16 16" fill="none" xmlns="http://www.w3.org/2000/svg" id="Phone--Streamline-Unicons" height="16" width="16">
  <desc>
    Phone Streamline Icon: https://streamlinehq.com
  </desc>
  <path d="M13.896533333333332 8.8066c-0.1731333333333333 0 -0.35406666666666664 -0.05506666666666667 -0.5271999999999999 -0.0944 -0.35053333333333336 -0.07726666666666666 -0.6950666666666666 -0.1798 -1.0307333333333333 -0.3068666666666666 -0.365 -0.13279999999999997 -0.7662666666666667 -0.12586666666666665 -1.1264666666666665 0.019333333333333334 -0.3603333333333333 0.14526666666666666 -0.6539999999999999 0.41859999999999997 -0.8248666666666666 0.7674666666666666l-0.17306666666666665 0.35406666666666664c-0.7664 -0.4262666666666666 -1.4706000000000001 -0.9558 -2.0929333333333333 -1.5735999999999999 -0.6179333333333332 -0.6224 -1.1474 -1.3266 -1.5736666666666665 -2.0929333333333333l0.33046666666666663 -0.22033333333333333c0.3488 -0.17079999999999998 0.6222 -0.46459999999999996 0.7674666666666666 -0.8248666666666666 0.14526666666666666 -0.36019999999999996 0.15206666666666666 -0.7614666666666667 0.019333333333333334 -1.1264666666666665 -0.12493333333333334 -0.33640000000000003 -0.22746666666666665 -0.6807333333333332 -0.3068666666666666 -1.0307333333333333 -0.03933333333333333 -0.1731333333333333 -0.0708 -0.35406666666666664 -0.0944 -0.5350666666666666 -0.09559999999999999 -0.5542 -0.38586666666666664 -1.0560666666666667 -0.8186 -1.4152666666666667C6.0122 0.3677333333333333 5.465466666666666 0.17486666666666664 4.903133333333333 0.183H2.5426666666666664C2.203533333333333 0.17986666666666665 1.8677333333333332 0.24979999999999997 1.5580666666666665 0.38799999999999996c-0.3096 0.13826666666666665 -0.5858666666666666 0.3416666666666666 -0.8098666666666667 0.5962666666666666 -0.22393333333333332 0.2546 -0.39046666666666663 0.5544666666666667 -0.4881333333333333 0.8792 -0.09773333333333334 0.3247333333333333 -0.12426666666666666 0.6667333333333333 -0.07793333333333333 1.0026 0.4192 3.296333333333333 1.9245999999999999 6.359066666666667 4.278533333333333 8.704333333333333 2.3538666666666668 2.3453999999999997 5.421999999999999 3.8396 8.719866666666666 4.2467999999999995h0.299c0.5801999999999999 0.0008666666666666666 1.1403999999999999 -0.212 1.5735999999999999 -0.598 0.24886666666666668 -0.2225333333333333 0.4478 -0.49553333333333327 0.5833999999999999 -0.8007333333333333 0.1356 -0.3051333333333333 0.20493333333333333 -0.6356666666666666 0.20346666666666668 -0.9695999999999999v-2.3604666666666665c-0.009733333333333333 -0.5465333333333333 -0.20866666666666667 -1.0727333333333333 -0.5631333333333333 -1.4889333333333332 -0.35439999999999994 -0.4161333333333333 -0.8423333333333334 -0.6963999999999999 -1.3803333333333332 -0.7928666666666666Zm0.39339999999999997 4.720933333333333c-0.00013333333333333334 0.11173333333333332 -0.024066666666666667 0.22213333333333332 -0.0702 0.32386666666666664 -0.0462 0.10186666666666666 -0.11346666666666666 0.19253333333333333 -0.1973333333333333 0.26626666666666665 -0.08766666666666667 0.07633333333333334 -0.1904 0.13333333333333333 -0.3016 0.16720000000000002 -0.11113333333333332 0.03393333333333333 -0.2282 0.044 -0.34359999999999996 0.02953333333333333 -2.946733333333333 -0.37786666666666663 -5.683866666666667 -1.7259333333333333 -7.779533333333333 -3.8316 -2.0957333333333334 -2.1057333333333332 -3.4308 -4.8492 -3.7946666666666666 -7.797666666666666 -0.012533333333333334 -0.11526666666666666 -0.0015333333333333332 -0.23186666666666667 0.032266666666666666 -0.34273333333333333s0.08979999999999999 -0.2138 0.16446666666666665 -0.30246666666666666c0.07373333333333333 -0.08393333333333333 0.16446666666666665 -0.1512 0.26626666666666665 -0.1973333333333333 0.10173333333333334 -0.04613333333333333 0.2121333333333333 -0.07006666666666667 0.32386666666666664 -0.0702h2.3604666666666665c0.1829333333333333 -0.004066666666666666 0.3616 0.055799999999999995 0.5052666666666666 0.16926666666666668 0.1436 0.1134 0.24313333333333334 0.2734 0.2815333333333333 0.4523333333333333 0.031466666666666664 0.21506666666666666 0.0708 0.4275333333333333 0.11806666666666667 0.6373333333333333 0.09086666666666667 0.41479999999999995 0.21186666666666668 0.8224 0.36193333333333333 1.2195999999999998l-1.1016 0.5114c-0.09413333333333332 0.043199999999999995 -0.17886666666666665 0.1046 -0.24926666666666666 0.18066666666666667 -0.07039999999999999 0.07606666666666666 -0.12506666666666666 0.16526666666666667 -0.16093333333333332 0.2624666666666666 -0.0358 0.09726666666666667 -0.052066666666666664 0.2006 -0.047799999999999995 0.3041333333333333 0.0042 0.10353333333333332 0.028866666666666665 0.20526666666666665 0.07246666666666667 0.29919999999999997 1.1324 2.4256666666666664 3.0822000000000003 4.3754 5.5078 5.5078 0.19153333333333333 0.07866666666666666 0.4064 0.07866666666666666 0.598 0 0.09806666666666666 -0.03513333333333333 0.18826666666666664 -0.08933333333333333 0.2652 -0.1596 0.07706666666666666 -0.07026666666666666 0.13926666666666665 -0.15506666666666666 0.18326666666666663 -0.24953333333333333l0.48786666666666667 -1.1016c0.4066666666666666 0.14553333333333332 0.8218666666666665 0.2663333333333333 1.2431333333333332 0.36193333333333333 0.2098 0.0472 0.42219999999999996 0.08659999999999998 0.6373333333333333 0.11806666666666667 0.17893333333333333 0.0384 0.33886666666666665 0.13793333333333332 0.4523333333333333 0.28159999999999996 0.11346666666666666 0.1436 0.17333333333333334 0.32226666666666665 0.16926666666666668 0.5052l0.015733333333333332 2.454933333333333Z" fill="#000000" stroke-width="0.6667"></path>
</svg>